<svg width="100%" height="100%" viewBox="0 0 16 16" version="1.1" xmlns="http://www.w3.org/2000/svg" xmlns:xlink="http://www.w3.org/1999/xlink" xml:space="preserve" xmlns:serif="http://www.serif.com/" style="fill-rule:evenodd;clip-rule:evenodd;stroke-linejoin:round;stroke-miterlimit:2;">
    <g id="favicon">
        <path id="background" d="M3.846,-0L12.154,0C13.491,-0 13.976,0.139 14.465,0.401C14.954,0.662 15.338,1.046 15.599,1.535C15.861,2.024 16,2.509 16,3.846L16,12.154C16,13.491 15.861,13.976 15.599,14.465C15.338,14.954 14.954,15.338 14.465,15.599C13.976,15.861 13.491,16 12.154,16L3.846,16C2.509,16 2.024,15.861 1.535,15.599C1.046,15.338 0.662,14.954 0.401,14.465C0.139,13.976 0,13.491 -0,12.154L0,3.846C-0,2.509 0.139,2.024 0.401,1.535C0.662,1.046 1.046,0.662 1.535,0.401C2.024,0.139 2.509,0 3.846,-0Z" style="fill:white;"/>
        <path id="Rectangle" d="M3.282,2L6,2L6,7L2,7L2,3.282C2,2.836 2.046,2.675 2.134,2.512C2.221,2.349 2.349,2.221 2.512,2.134C2.675,2.046 2.836,2 3.282,2Z" style="fill:rgb(39,3,255);"/>
        <path id="Rectangle-Copy-2" d="M2,9L8,9L8,14L3.282,14C2.836,14 2.675,13.954 2.512,13.866C2.349,13.779 2.221,13.651 2.134,13.488C2.046,13.325 2,13.164 2,12.718L2,9Z" style="fill:rgb(39,3,255);"/>
        <path id="Rectangle-Copy" d="M8,2L12.718,2C13.164,2 13.325,2.046 13.488,2.134C13.651,2.221 13.779,2.349 13.866,2.512C13.954,2.675 14,2.836 14,3.282L14,7L8,7L8,2Z" style="fill:rgb(39,3,255);"/>
        <path id="Rectangle-Copy-3" d="M10,9L14,9L14,12.718C14,13.164 13.954,13.325 13.866,13.488C13.779,13.651 13.651,13.779 13.488,13.866C13.325,13.954 13.164,14 12.718,14L10,14L10,9Z" style="fill:rgb(39,3,255);"/>
    </g>
		<style>
			@media (prefers-color-scheme: dark) { #background { fill: #ffffff; } }
		</style>
</svg>
